<svg width="167" height="25" viewBox="0 0 167 25" fill="none" xmlns="http://www.w3.org/2000/svg">
<path d="M114.255 0.473784C114.213 0.335017 114.127 0.213725 114.01 0.128278C113.893 0.0428304 113.751 -0.00211765 113.606 0.000240885C113.538 0.00080421 113.471 0.0112902 113.406 0.0313658V0.0313658C111.869 0.505167 110.451 1.3001 109.244 2.36351C108.919 2.64939 108.611 2.95452 108.322 3.27725L108.27 3.33505C108.253 3.35099 108.237 3.36808 108.222 3.38619C107.508 4.19919 106.917 5.11222 106.467 6.09628C106.637 5.2918 106.927 4.51754 107.328 3.7997C107.443 3.59295 107.566 3.38841 107.697 3.19055L107.735 3.13497C107.735 3.13497 107.786 3.07272 107.715 3.05271C107.643 3.0327 107.523 3.00157 107.428 2.97934L107.281 2.95044C106.511 2.80902 105.716 2.88679 104.988 3.1749C104.259 3.46301 103.627 3.94988 103.162 4.58005C102.658 5.24448 102.364 6.0432 102.315 6.87517C102.265 7.70713 102.464 8.53497 102.886 9.25395C103.307 9.97293 103.932 10.5507 104.682 10.9143C105.432 11.2779 106.273 11.4108 107.099 11.2964C107.23 11.2808 107.363 11.2563 107.497 11.2274C108.299 11.0403 109.029 10.6228 109.597 10.0262C110.164 9.42971 110.545 8.68019 110.693 7.86989C110.84 7.0596 110.748 6.22389 110.426 5.46559C110.105 4.70728 109.569 4.05946 108.884 3.60184C108.88 3.59871 108.877 3.5948 108.875 3.59038C108.873 3.58596 108.872 3.58115 108.872 3.57627C108.872 3.5714 108.873 3.56658 108.875 3.56216C108.877 3.55775 108.88 3.55384 108.884 3.55071C109.143 3.3379 109.412 3.1383 109.691 2.95266C110.905 2.13304 112.28 1.58132 113.724 1.33417C113.753 1.33417 113.784 1.32083 113.811 1.31416C113.895 1.28879 113.974 1.24681 114.043 1.19066C114.111 1.13451 114.168 1.06532 114.209 0.987104C114.25 0.908891 114.276 0.823226 114.284 0.735097C114.292 0.646969 114.282 0.55814 114.255 0.473784V0.473784ZM105.158 5.17809C105.135 5.29601 105.078 5.40444 104.993 5.48957C104.908 5.5747 104.8 5.63267 104.682 5.65608C104.642 5.65928 104.602 5.65928 104.562 5.65608C104.435 5.6564 104.31 5.61662 104.207 5.54239C104.103 5.46816 104.026 5.36324 103.985 5.24249C103.945 5.12173 103.943 4.99128 103.981 4.86959C104.019 4.74791 104.094 4.64117 104.195 4.56449C104.269 4.50882 104.354 4.47079 104.444 4.45333C104.483 4.44905 104.523 4.44905 104.562 4.45333C104.694 4.45267 104.822 4.49567 104.927 4.5756C105.018 4.64395 105.089 4.7368 105.129 4.84343C105.17 4.95005 105.18 5.06608 105.158 5.17809V5.17809Z" fill="white"/>
<path d="M22.7146 12.7904C22.615 12.7175 22.5352 12.621 22.4821 12.5096C22.4291 12.3982 22.4046 12.2754 22.4107 12.1522C22.4169 12.029 22.4536 11.9092 22.5175 11.8037C22.5814 11.6982 22.6705 11.6102 22.7768 11.5476C23.5346 11.0897 24.1972 10.4904 24.7288 9.78236C25.482 8.75965 25.8773 7.51735 25.8537 6.24746C25.8537 4.42739 25.1253 3.01935 23.6683 2.02336C22.2114 1.02736 20.083 0.535288 17.2833 0.547145H5.24236C5.06488 0.54675 4.89276 0.607912 4.75533 0.720208C4.6179 0.832503 4.52367 0.988981 4.48869 1.16297L0.0155878 23.5329C-0.00753485 23.6445 -0.00550051 23.7598 0.0215429 23.8706C0.0485863 23.9813 0.099959 24.0845 0.171926 24.1729C0.243894 24.2613 0.334647 24.3325 0.437588 24.3814C0.540529 24.4303 0.653072 24.4556 0.767033 24.4555H13.6283C16.9083 24.4555 19.5895 23.8182 21.6719 22.5436C23.7543 21.2689 24.7918 19.3674 24.7844 16.8388C24.8118 15.835 24.519 14.8484 23.9485 14.022C23.6101 13.5444 23.1928 13.1279 22.7146 12.7904V12.7904ZM16.0449 18.255C15.4638 18.6539 14.7681 18.8514 14.0641 18.8175H9.81773C9.70416 18.8173 9.59204 18.792 9.48942 18.7434C9.38679 18.6948 9.2962 18.6241 9.22415 18.5363C9.1521 18.4485 9.10038 18.3459 9.0727 18.2357C9.04502 18.1256 9.04207 18.0107 9.06406 17.8993L9.5087 15.6761C9.54362 15.5019 9.63777 15.3451 9.77515 15.2325C9.91254 15.1198 10.0847 15.0582 10.2624 15.058H14.8244C15.3284 15.0395 15.825 15.1837 16.2406 15.4693C16.4242 15.6002 16.572 15.775 16.6707 15.9777C16.7693 16.1804 16.8156 16.4046 16.8053 16.6298C16.8226 16.9415 16.7631 17.2527 16.6321 17.5361C16.5011 17.8194 16.3025 18.0663 16.0538 18.255H16.0449ZM14.7888 9.73345H11.6296C11.5159 9.73336 11.4035 9.70804 11.3007 9.65929C11.1979 9.61055 11.1071 9.5396 11.035 9.45156C10.963 9.36352 10.9113 9.26058 10.8838 9.15017C10.8563 9.03975 10.8536 8.92461 10.876 8.81304L11.2828 6.79659C11.3186 6.62298 11.413 6.46698 11.5503 6.35482C11.6875 6.24267 11.8592 6.1812 12.0365 6.18076H15.3402C16.0227 6.18076 16.5474 6.30748 16.912 6.55648C17.0888 6.67691 17.2318 6.84074 17.3272 7.03226C17.4225 7.22379 17.4671 7.4366 17.4567 7.6503C17.4537 9.04055 16.5644 9.73493 14.7888 9.73345Z" fill="white"/>
<path d="M46.0917 4.57562H30.6804C30.5027 4.57575 30.3306 4.63738 30.1932 4.75005C30.0558 4.86271 29.9617 5.01946 29.9267 5.19368L26.2696 23.5352C26.2476 23.6466 26.2505 23.7615 26.2782 23.8716C26.3059 23.9817 26.3576 24.0844 26.4297 24.1722C26.5017 24.2599 26.5923 24.3307 26.6949 24.3793C26.7976 24.4279 26.9097 24.4532 27.0232 24.4533H42.808C42.9857 24.4532 43.1579 24.3916 43.2952 24.2789C43.4326 24.1663 43.5268 24.0095 43.5617 23.8353L44.3821 19.7379C44.4044 19.6263 44.4018 19.5112 44.3742 19.4008C44.3467 19.2904 44.2951 19.1874 44.223 19.0994C44.1509 19.0114 44.0602 18.9404 43.9574 18.8917C43.8545 18.8429 43.7422 18.8176 43.6284 18.8175H35.885C35.7703 18.8182 35.657 18.7933 35.5532 18.7446C35.4495 18.6959 35.3579 18.6246 35.2853 18.5359C35.2126 18.4473 35.1606 18.3435 35.1332 18.2322C35.1058 18.1209 35.1036 18.0049 35.1268 17.8927L35.1824 17.6214C35.2186 17.4482 35.3133 17.2927 35.4505 17.181C35.5877 17.0693 35.7591 17.0081 35.9361 17.0078H42.7413C42.9187 17.0078 43.0906 16.9465 43.2279 16.8342C43.3653 16.722 43.4596 16.5658 43.495 16.392L44.242 12.6726C44.2644 12.561 44.2617 12.4458 44.2342 12.3354C44.2067 12.225 44.155 12.1221 44.0829 12.034C44.0108 11.946 43.9201 11.875 43.8173 11.8263C43.7145 11.7776 43.6021 11.7522 43.4883 11.7521H37.2633C37.159 11.7578 37.0546 11.7421 36.9565 11.706C36.8584 11.6699 36.7687 11.6143 36.6929 11.5424C36.617 11.4705 36.5566 11.3839 36.5153 11.2879C36.4741 11.1919 36.4528 11.0885 36.4528 10.984C36.4528 10.8795 36.4741 10.7761 36.5153 10.6801C36.5566 10.5841 36.617 10.4976 36.6929 10.4257C36.7687 10.3538 36.8584 10.2981 36.9565 10.2621C37.0546 10.226 37.159 10.2103 37.2633 10.2159H45.2669C45.4451 10.2152 45.6175 10.1527 45.7549 10.0393C45.8923 9.92578 45.9862 9.76825 46.0206 9.59341L46.8387 5.49603C46.861 5.38501 46.8584 5.27044 46.8313 5.16051C46.8042 5.05058 46.7531 4.94799 46.6818 4.86007C46.6104 4.77216 46.5205 4.70107 46.4185 4.6519C46.3165 4.60273 46.2049 4.57669 46.0917 4.57562V4.57562Z" fill="white"/>
<path d="M57.8658 6.62543C58.4824 6.30825 59.348 6.14892 60.4625 6.14744C61.6322 6.14608 62.7971 6.29553 63.9285 6.59208C64.7603 6.80825 65.5644 7.11932 66.3252 7.51916C66.4157 7.56866 66.5153 7.59944 66.618 7.60965C66.7207 7.61986 66.8244 7.6093 66.9229 7.5786C67.0215 7.5479 67.1128 7.49768 67.1916 7.43094C67.2703 7.3642 67.3348 7.28231 67.3812 7.19012L69.5866 2.71258C69.677 2.53222 69.6926 2.32351 69.6302 2.13168C69.5678 1.93985 69.4323 1.78033 69.2531 1.68768C68.1975 1.17101 67.0839 0.78216 65.9361 0.529384C64.3073 0.166498 62.6426 -0.0110052 60.9739 0.000260173C58.4928 0.000260173 56.3437 0.370795 54.5266 1.11187C52.7095 1.85294 51.3126 2.89933 50.3358 4.25104C49.3591 5.63253 48.8503 7.29046 48.8841 8.98203C48.8841 10.4167 49.2768 11.5721 50.0624 12.448C50.8139 13.3027 51.7549 13.9696 52.8103 14.3955C54.1034 14.894 55.4266 15.3105 56.772 15.6428C57.6755 15.8387 58.5612 16.1094 59.4199 16.452C59.9779 16.7032 60.2558 17.0323 60.2558 17.4436C60.2558 17.8549 59.9823 18.2172 59.4377 18.4685C58.893 18.7197 58.1037 18.8442 57.081 18.8442C54.5025 18.8392 51.9645 18.2026 49.6889 16.99C49.6001 16.9436 49.5031 16.9151 49.4033 16.9062C49.3036 16.8972 49.203 16.908 49.1074 16.938C49.0118 16.9679 48.9231 17.0164 48.8462 17.0806C48.7694 17.1449 48.7059 17.2236 48.6595 17.3124L46.2585 21.9056C46.2111 21.9958 46.1821 22.0946 46.1732 22.1961C46.1642 22.2976 46.1754 22.3999 46.2062 22.4971C46.237 22.5942 46.2868 22.6843 46.3526 22.7621C46.4184 22.84 46.499 22.904 46.5897 22.9505C47.8072 23.5596 49.0932 24.0208 50.4203 24.3244C52.3334 24.7797 54.2942 25.0036 56.2607 24.9914C58.7196 24.9914 60.8598 24.6208 62.6813 23.8798C64.5029 23.1387 65.9035 22.0967 66.8832 20.7539C67.8667 19.3943 68.3817 17.7519 68.3505 16.0741C68.3505 14.6631 67.9637 13.5248 67.19 12.6592C66.4397 11.8108 65.4965 11.1551 64.4399 10.7473C63.1646 10.2708 61.858 9.88301 60.5293 9.58674C59.5912 9.39347 58.6718 9.11898 57.7814 8.76638C57.2233 8.51516 56.9432 8.17501 56.9432 7.74148C56.9432 7.30795 57.25 6.94335 57.8658 6.62543Z" fill="white"/>
<path d="M102.372 11.4298C102.326 11.3853 102.279 11.3386 102.234 11.2919C101.672 10.7184 101.231 10.0372 100.939 9.28918C100.646 8.54117 100.508 7.74176 100.531 6.9389C100.552 6.25235 100.694 5.57491 100.952 4.93801C100.968 4.89834 100.974 4.85527 100.97 4.81256C100.966 4.76986 100.951 4.72882 100.928 4.69305C100.904 4.65728 100.872 4.62787 100.834 4.6074C100.797 4.58693 100.754 4.57602 100.711 4.57562H99.1552C99.0148 4.57569 98.8772 4.61429 98.7572 4.68721C98.6373 4.76012 98.5396 4.86456 98.4749 4.98914L94.6065 12.4013C94.531 12.5514 94.4083 12.6726 94.2574 12.7464C94.1064 12.8202 93.9355 12.8425 93.7706 12.81C93.6058 12.7775 93.4561 12.6919 93.3445 12.5663C93.2329 12.4407 93.1655 12.2821 93.1526 12.1145L92.5301 5.27593C92.5129 5.08486 92.4249 4.9071 92.2834 4.77754C92.1419 4.64797 91.9571 4.57596 91.7653 4.57562H85.687C85.5467 4.57594 85.4091 4.61464 85.2892 4.68753C85.1693 4.76042 85.0716 4.86472 85.0067 4.98914L81.2006 12.2768C81.124 12.4224 81.0028 12.5396 80.8547 12.6112C80.7067 12.6828 80.5395 12.7051 80.3779 12.6747C80.2162 12.6444 80.0686 12.563 79.9566 12.4426C79.8445 12.3222 79.7741 12.169 79.7555 12.0056L79.0129 5.26037C78.9928 5.07342 78.9046 4.90039 78.7653 4.77415C78.6259 4.64792 78.4451 4.57726 78.257 4.57562H72.0498C71.9412 4.5758 71.8339 4.59897 71.7349 4.64361C71.6359 4.68826 71.5475 4.75336 71.4754 4.83463C71.4034 4.91591 71.3494 5.01152 71.3169 5.11517C71.2845 5.21882 71.2744 5.32817 71.2873 5.43601L73.4616 23.7753C73.4864 23.9599 73.5773 24.1293 73.7176 24.252C73.8578 24.3747 74.0378 24.4423 74.2241 24.4422H81.5096C81.6508 24.4419 81.7891 24.4027 81.9095 24.329C82.0299 24.2553 82.1277 24.1499 82.1921 24.0243L85.4291 17.7415C85.505 17.5938 85.6267 17.4747 85.7759 17.4019C85.9251 17.3291 86.0938 17.3066 86.2569 17.3376C86.42 17.3686 86.5687 17.4515 86.6807 17.574C86.7928 17.6965 86.8622 17.852 86.8787 18.0172L87.4411 23.7486C87.4604 23.9383 87.5492 24.1141 87.6904 24.2422C87.8316 24.3703 88.0153 24.4416 88.2059 24.4422H95.4825C95.6226 24.4421 95.76 24.4038 95.8799 24.3313C95.9998 24.2588 96.0976 24.1549 96.1628 24.0309L102.468 12.0523C102.521 11.952 102.54 11.8373 102.523 11.7253C102.505 11.6132 102.453 11.5096 102.372 11.4298V11.4298Z" fill="white"/>
<path d="M124.482 4.57563H112.495C112.438 4.57587 112.383 4.5898 112.333 4.61622C112.283 4.64264 112.24 4.68077 112.208 4.72733C112.176 4.77389 112.156 4.82749 112.15 4.88355C112.143 4.9396 112.15 4.99644 112.17 5.04917C112.564 6.13156 112.641 7.30379 112.392 8.42845C112.118 9.66905 111.454 10.7896 110.499 11.6269C109.543 12.4643 108.345 12.9747 107.079 13.0839C106.979 13.0938 106.886 13.1355 106.812 13.2028C106.738 13.27 106.687 13.3592 106.668 13.4573L104.667 23.5352C104.645 23.6466 104.648 23.7615 104.675 23.8716C104.703 23.9817 104.755 24.0844 104.827 24.1722C104.899 24.2599 104.99 24.3307 105.092 24.3793C105.195 24.4279 105.307 24.4532 105.42 24.4533H121.205C121.383 24.4532 121.555 24.3916 121.692 24.2789C121.83 24.1663 121.924 24.0095 121.959 23.8353L122.779 19.7379C122.802 19.6263 122.799 19.5112 122.771 19.4008C122.744 19.2904 122.692 19.1874 122.62 19.0994C122.548 19.0114 122.457 18.9404 122.355 18.8917C122.252 18.8429 122.139 18.8176 122.026 18.8175H114.273C114.159 18.8176 114.046 18.7923 113.943 18.7432C113.84 18.6942 113.749 18.6228 113.677 18.5342C113.605 18.4455 113.554 18.342 113.527 18.231C113.5 18.12 113.498 18.0044 113.522 17.8927L113.577 17.6214C113.614 17.4482 113.708 17.2927 113.845 17.181C113.983 17.0693 114.154 17.0082 114.331 17.0078H121.136C121.314 17.0078 121.486 16.9465 121.623 16.8342C121.76 16.722 121.855 16.5658 121.89 16.392L122.639 12.6726C122.662 12.561 122.659 12.4458 122.631 12.3354C122.604 12.225 122.552 12.1221 122.48 12.034C122.408 11.946 122.317 11.875 122.215 11.8263C122.112 11.7776 121.999 11.7522 121.886 11.7521H115.661C115.556 11.7578 115.452 11.7421 115.354 11.706C115.256 11.6699 115.166 11.6143 115.09 11.5424C115.014 11.4705 114.954 11.3839 114.913 11.2879C114.871 11.1919 114.85 11.0885 114.85 10.984C114.85 10.8795 114.871 10.7761 114.913 10.6801C114.954 10.5841 115.014 10.4976 115.09 10.4257C115.166 10.3538 115.256 10.2981 115.354 10.2621C115.452 10.226 115.556 10.2103 115.661 10.2159H123.664C123.842 10.2162 124.014 10.1547 124.152 10.042C124.289 9.92925 124.383 9.77226 124.418 9.59786L125.238 5.50048C125.261 5.38841 125.259 5.27259 125.232 5.16145C125.205 5.05032 125.153 4.94667 125.08 4.85806C125.008 4.76945 124.917 4.69812 124.813 4.64926C124.71 4.6004 124.597 4.57524 124.482 4.57563V4.57563Z" fill="white"/>
<path d="M144.564 4.5756H129.169C128.991 4.57615 128.819 4.63794 128.682 4.75053C128.545 4.86313 128.45 5.01964 128.415 5.19366L124.76 23.5351C124.738 23.6466 124.741 23.7614 124.769 23.8716C124.796 23.9817 124.848 24.0844 124.92 24.1721C124.992 24.2599 125.083 24.3307 125.185 24.3793C125.288 24.4279 125.4 24.4532 125.514 24.4533H141.299C141.476 24.4532 141.648 24.3916 141.786 24.2789C141.923 24.1662 142.017 24.0095 142.052 23.8353L142.873 19.7379C142.895 19.6263 142.892 19.5112 142.865 19.4008C142.837 19.2904 142.786 19.1874 142.713 19.0994C142.641 19.0113 142.551 18.9404 142.448 18.8916C142.345 18.8429 142.233 18.8176 142.119 18.8175H134.355C134.242 18.816 134.131 18.7894 134.029 18.7397C133.927 18.6899 133.838 18.6183 133.767 18.5299C133.696 18.4414 133.646 18.3384 133.62 18.2283C133.593 18.1181 133.592 18.0035 133.615 17.8926L133.671 17.6214C133.706 17.4482 133.8 17.2925 133.937 17.1807C134.074 17.0689 134.245 17.0078 134.422 17.0078H141.218C141.396 17.0074 141.567 16.9459 141.705 16.8337C141.842 16.7216 141.936 16.5656 141.972 16.392L142.73 12.6725C142.753 12.561 142.75 12.4458 142.722 12.3354C142.695 12.225 142.643 12.1221 142.571 12.034C142.499 11.946 142.408 11.875 142.306 11.8263C142.203 11.7775 142.09 11.7522 141.977 11.7521H135.752C135.647 11.7577 135.543 11.742 135.445 11.706C135.347 11.6699 135.257 11.6142 135.181 11.5424C135.105 11.4705 135.045 11.3839 135.004 11.2879C134.962 11.1919 134.941 11.0885 134.941 10.984C134.941 10.8795 134.962 10.7761 135.004 10.6801C135.045 10.5841 135.105 10.4975 135.181 10.4257C135.257 10.3538 135.347 10.2981 135.445 10.262C135.543 10.226 135.647 10.2103 135.752 10.2159H143.755C143.934 10.216 144.106 10.1539 144.244 10.0403C144.382 9.92663 144.475 9.76861 144.509 9.59339L145.329 5.49601C145.352 5.38352 145.349 5.2674 145.321 5.15617C145.293 5.04493 145.24 4.9414 145.167 4.85316C145.093 4.76491 145.001 4.69418 144.897 4.64616C144.793 4.59813 144.679 4.57403 144.564 4.5756V4.5756Z" fill="white"/>
<path d="M165.723 4.5756H148.095C147.917 4.57656 147.746 4.6385 147.608 4.75102C147.471 4.86355 147.377 5.01982 147.341 5.19365L146.487 9.46222C146.465 9.57379 146.468 9.68893 146.495 9.79934C146.523 9.90976 146.574 10.0127 146.646 10.1007C146.719 10.1888 146.809 10.2597 146.912 10.3085C147.015 10.3572 147.127 10.3825 147.241 10.3826H151.036C151.15 10.3824 151.262 10.4074 151.365 10.4559C151.468 10.5044 151.559 10.5751 151.631 10.663C151.703 10.7509 151.754 10.8537 151.782 10.964C151.81 11.0743 151.812 11.1894 151.79 11.3008L149.344 23.5285C149.322 23.6399 149.325 23.7548 149.353 23.8649C149.381 23.975 149.432 24.0777 149.504 24.1655C149.576 24.2532 149.667 24.324 149.77 24.3726C149.872 24.4212 149.984 24.4465 150.098 24.4466H156.387C156.565 24.4461 156.737 24.3843 156.874 24.2717C157.011 24.1591 157.106 24.0026 157.141 23.8286L159.696 10.994C159.73 10.8196 159.824 10.6626 159.962 10.5499C160.099 10.4371 160.271 10.3757 160.449 10.376H164.858C165.037 10.3799 165.213 10.3209 165.354 10.2093C165.495 10.0977 165.592 9.94038 165.629 9.76457L166.483 5.49601C166.505 5.38393 166.502 5.26836 166.474 5.15763C166.446 5.0469 166.394 4.94378 166.321 4.85572C166.248 4.76766 166.157 4.69685 166.053 4.64841C165.95 4.59996 165.837 4.5751 165.723 4.5756V4.5756Z" fill="white"/>
</svg>
