<svg width="50" height="50" viewBox="0 0 50 50" fill="none" xmlns="http://www.w3.org/2000/svg">
<rect width="50" height="50" rx="25" fill="#B3B3B3" fill-opacity="0.2"/>
<path fill-rule="evenodd" clip-rule="evenodd" d="M33 25C33 25.1515 32.9398 25.2969 32.8326 25.404C32.7255 25.5112 32.5802 25.5714 32.4286 25.5714L18.9518 25.5714L22.5481 29.1666C22.6554 29.2739 22.7157 29.4194 22.7157 29.5711C22.7157 29.7229 22.6554 29.8684 22.5481 29.9757C22.4408 30.083 22.2953 30.1432 22.1435 30.1432C21.9918 30.1432 21.8463 30.083 21.739 29.9757L17.1679 25.4045C17.1147 25.3515 17.0724 25.2884 17.0436 25.219C17.0148 25.1496 17 25.0752 17 25C17 24.9248 17.0148 24.8504 17.0436 24.781C17.0724 24.7116 17.1147 24.6485 17.1679 24.5955L21.739 20.0243C21.8463 19.917 21.9918 19.8567 22.1436 19.8567C22.2953 19.8567 22.4408 19.917 22.5481 20.0243C22.6554 20.1316 22.7157 20.2771 22.7157 20.4289C22.7157 20.5806 22.6554 20.7261 22.5481 20.8334L18.9518 24.4286L32.4286 24.4286C32.5802 24.4286 32.7255 24.4888 32.8326 24.596C32.9398 24.7031 33 24.8485 33 25V25Z" fill="white"/>
</svg>
