<svg width="50" height="50" viewBox="0 0 50 50" fill="none" xmlns="http://www.w3.org/2000/svg">
<path d="M50 25C50 38.8071 38.8071 50 25 50V50C11.1929 50 9.78513e-07 38.8071 2.18557e-06 25V25C3.39263e-06 11.1929 11.1929 -3.39263e-06 25 -2.18557e-06V-2.18557e-06C38.8071 -9.78513e-07 50 11.1929 50 25V25Z" fill="white" fill-opacity="0.4"/>
<path fill-rule="evenodd" clip-rule="evenodd" d="M17 25C17 24.8485 17.0602 24.7031 17.1674 24.596C17.2745 24.4888 17.4198 24.4286 17.5714 24.4286L31.0482 24.4286L27.4519 20.8334C27.3446 20.7261 27.2843 20.5806 27.2843 20.4289C27.2843 20.2771 27.3446 20.1316 27.4519 20.0243C27.5592 19.917 27.7047 19.8568 27.8565 19.8568C28.0082 19.8568 28.1537 19.917 28.261 20.0243L32.8321 24.5955C32.8853 24.6485 32.9276 24.7116 32.9564 24.781C32.9852 24.8504 33 24.9248 33 25C33 25.0752 32.9852 25.1496 32.9564 25.219C32.9276 25.2884 32.8853 25.3515 32.8321 25.4045L28.261 29.9757C28.1537 30.083 28.0082 30.1433 27.8564 30.1433C27.7047 30.1433 27.5592 30.083 27.4519 29.9757C27.3446 29.8684 27.2843 29.7229 27.2843 29.5711C27.2843 29.4194 27.3446 29.2739 27.4519 29.1666L31.0482 25.5714L17.5714 25.5714C17.4198 25.5714 17.2745 25.5112 17.1674 25.404C17.0602 25.2969 17 25.1515 17 25V25Z" fill="white"/>
</svg>
