<svg width="192" height="38" viewBox="0 0 192 38" fill="none" xmlns="http://www.w3.org/2000/svg">
<circle cx="15" cy="19" r="15" fill="white"/>
<path d="M53.0597 13.0909C52.9276 11.9754 52.3918 11.1094 51.4524 10.4929C50.513 9.87642 49.3608 9.56818 47.9957 9.56818C46.9976 9.56818 46.1243 9.72964 45.3757 10.0526C44.6345 10.3755 44.0547 10.8195 43.6364 11.3846C43.2254 11.9497 43.0199 12.5919 43.0199 13.3111C43.0199 13.9129 43.163 14.4303 43.4492 14.8633C43.7428 15.2889 44.1171 15.6449 44.5721 15.9311C45.0271 16.21 45.5041 16.4412 46.0032 16.6246C46.5022 16.8008 46.9609 16.9439 47.3793 17.054L49.669 17.6705C50.2562 17.8246 50.9093 18.0374 51.6286 18.3089C52.3551 18.5805 53.0487 18.9511 53.7092 19.4208C54.377 19.8832 54.9274 20.4776 55.3604 21.2042C55.7934 21.9308 56.0099 22.8224 56.0099 23.8793C56.0099 25.0975 55.6907 26.1984 55.0522 27.1818C54.421 28.1652 53.4963 28.9469 52.2781 29.5266C51.0671 30.1064 49.5956 30.3963 47.8636 30.3963C46.2491 30.3963 44.851 30.1358 43.6694 29.6147C42.4951 29.0936 41.5704 28.3671 40.8952 27.435C40.2274 26.503 39.8494 25.4205 39.7614 24.1875H42.5795C42.6529 25.0388 42.9392 25.7434 43.4382 26.3011C43.9446 26.8516 44.5831 27.2625 45.3537 27.5341C46.1316 27.7983 46.9683 27.9304 47.8636 27.9304C48.9058 27.9304 49.8415 27.7616 50.6708 27.424C51.5001 27.0791 52.157 26.602 52.6413 25.9929C53.1257 25.3764 53.3679 24.6572 53.3679 23.8352C53.3679 23.0866 53.1587 22.4775 52.7404 22.0078C52.3221 21.5381 51.7717 21.1565 51.0891 20.8629C50.4066 20.5694 49.669 20.3125 48.8764 20.0923L46.1023 19.2997C44.3409 18.7933 42.9465 18.0704 41.919 17.131C40.8916 16.1916 40.3778 14.9624 40.3778 13.4432C40.3778 12.1809 40.7191 11.08 41.4016 10.1406C42.0915 9.19389 43.0162 8.45999 44.1758 7.93892C45.3427 7.41051 46.6454 7.14631 48.0838 7.14631C49.5369 7.14631 50.8286 7.40684 51.9588 7.92791C53.089 8.44164 53.9844 9.14619 54.6449 10.0415C55.3127 10.9369 55.665 11.9534 55.7017 13.0909H53.0597ZM67.2359 30.3523C65.6066 30.3523 64.2012 29.9927 63.0196 29.2734C61.8454 28.5469 60.939 27.5341 60.3005 26.2351C59.6694 24.9287 59.3538 23.4096 59.3538 21.6776C59.3538 19.9455 59.6694 18.419 60.3005 17.098C60.939 15.7696 61.827 14.7348 62.9646 13.9936C64.1095 13.245 65.4452 12.8707 66.9717 12.8707C67.8524 12.8707 68.722 13.0175 69.5807 13.3111C70.4394 13.6046 71.221 14.0817 71.9255 14.7422C72.6301 15.3954 73.1915 16.2614 73.6098 17.3402C74.0281 18.419 74.2373 19.7474 74.2373 21.3253V22.4261H61.2032V20.1804H71.5953C71.5953 19.2263 71.4044 18.375 71.0228 17.6264C70.6485 16.8778 70.1128 16.287 69.4156 15.854C68.7257 15.421 67.9111 15.2045 66.9717 15.2045C65.9369 15.2045 65.0415 15.4614 64.2856 15.9751C63.537 16.4815 62.9609 17.142 62.5573 17.9567C62.1536 18.7713 61.9518 19.6446 61.9518 20.5767V22.0739C61.9518 23.3509 62.172 24.4334 62.6123 25.3214C63.06 26.2021 63.6801 26.8736 64.4727 27.3359C65.2654 27.791 66.1864 28.0185 67.2359 28.0185C67.9184 28.0185 68.5349 27.9231 69.0853 27.7322C69.6431 27.5341 70.1238 27.2405 70.5274 26.8516C70.9311 26.4553 71.243 25.9635 71.4632 25.3764L73.9731 26.081C73.7089 26.9323 73.2649 27.6809 72.6411 28.3267C72.0173 28.9652 71.2467 29.4643 70.3293 29.8239C69.4119 30.1761 68.3808 30.3523 67.2359 30.3523ZM79.6728 13.0909L83.7239 20.0043L87.775 13.0909H90.7694L85.3091 21.5455L90.7694 30H87.775L83.7239 23.4389L79.6728 30H76.6784L82.0506 21.5455L76.6784 13.0909H79.6728ZM96.1498 36.3409C95.7094 36.3409 95.3168 36.3042 94.9719 36.2308C94.6269 36.1648 94.3884 36.0987 94.2563 36.0327L94.9168 33.7429C95.548 33.9044 96.1057 33.9631 96.5901 33.919C97.0745 33.875 97.5038 33.6585 97.8781 33.2695C98.2597 32.8879 98.6083 32.2678 98.9239 31.4091L99.4083 30.0881L93.1555 13.0909H95.9736L100.641 26.5653H100.817L105.485 13.0909H108.303L101.126 32.4659C100.803 33.3393 100.403 34.0621 99.9257 34.6346C99.4487 35.2144 98.8946 35.6437 98.2634 35.9226C97.6396 36.2015 96.935 36.3409 96.1498 36.3409ZM120.803 30V7.45454H123.533V27.5781H134.014V30H120.803ZM144.758 30.3523C143.231 30.3523 141.892 29.989 140.74 29.2624C139.595 28.5359 138.7 27.5194 138.054 26.2131C137.415 24.9067 137.096 23.3802 137.096 21.6335C137.096 19.8722 137.415 18.3346 138.054 17.021C138.7 15.7073 139.595 14.6871 140.74 13.9606C141.892 13.234 143.231 12.8707 144.758 12.8707C146.284 12.8707 147.62 13.234 148.765 13.9606C149.917 14.6871 150.813 15.7073 151.451 17.021C152.097 18.3346 152.42 19.8722 152.42 21.6335C152.42 23.3802 152.097 24.9067 151.451 26.2131C150.813 27.5194 149.917 28.5359 148.765 29.2624C147.62 29.989 146.284 30.3523 144.758 30.3523ZM144.758 28.0185C145.917 28.0185 146.872 27.7212 147.62 27.1268C148.369 26.5323 148.923 25.7507 149.282 24.782C149.642 23.8132 149.822 22.7637 149.822 21.6335C149.822 20.5033 149.642 19.4502 149.282 18.4741C148.923 17.498 148.369 16.709 147.62 16.1072C146.872 15.5054 145.917 15.2045 144.758 15.2045C143.598 15.2045 142.644 15.5054 141.896 16.1072C141.147 16.709 140.593 17.498 140.233 18.4741C139.874 19.4502 139.694 20.5033 139.694 21.6335C139.694 22.7637 139.874 23.8132 140.233 24.782C140.593 25.7507 141.147 26.5323 141.896 27.1268C142.644 27.7212 143.598 28.0185 144.758 28.0185ZM163.211 36.6932C161.956 36.6932 160.877 36.5317 159.974 36.2088C159.072 35.8932 158.319 35.4749 157.718 34.9538C157.123 34.4401 156.65 33.8897 156.298 33.3026L158.367 31.8494C158.602 32.1577 158.899 32.5099 159.259 32.9062C159.618 33.3099 160.11 33.6585 160.734 33.9521C161.365 34.253 162.191 34.4034 163.211 34.4034C164.576 34.4034 165.703 34.0732 166.591 33.4126C167.479 32.7521 167.923 31.7173 167.923 30.3082V26.8736H167.702C167.512 27.1818 167.24 27.5634 166.888 28.0185C166.543 28.4661 166.044 28.8661 165.391 29.2184C164.745 29.5633 163.871 29.7358 162.771 29.7358C161.406 29.7358 160.18 29.4129 159.094 28.767C158.015 28.1212 157.16 27.1818 156.529 25.9489C155.905 24.7159 155.593 23.2187 155.593 21.4574C155.593 19.7254 155.898 18.2172 156.507 16.9329C157.116 15.6412 157.964 14.6431 159.05 13.9386C160.136 13.2267 161.391 12.8707 162.815 12.8707C163.915 12.8707 164.789 13.0542 165.435 13.4212C166.088 13.7808 166.587 14.1918 166.932 14.6541C167.284 15.1091 167.556 15.4834 167.746 15.777H168.011V13.0909H170.521V30.4844C170.521 31.9375 170.19 33.1191 169.53 34.0291C168.877 34.9465 167.996 35.618 166.888 36.0437C165.787 36.4767 164.561 36.6932 163.211 36.6932ZM163.123 27.402C164.165 27.402 165.046 27.1635 165.765 26.6864C166.484 26.2094 167.031 25.5232 167.405 24.6278C167.779 23.7325 167.967 22.661 167.967 21.4134C167.967 20.1951 167.783 19.1199 167.416 18.1879C167.049 17.2558 166.506 16.5256 165.787 15.9972C165.068 15.4687 164.18 15.2045 163.123 15.2045C162.022 15.2045 161.105 15.4834 160.371 16.0412C159.644 16.599 159.097 17.3475 158.73 18.2869C158.371 19.2263 158.191 20.2685 158.191 21.4134C158.191 22.5876 158.375 23.6261 158.741 24.5288C159.116 25.4241 159.666 26.1287 160.393 26.6424C161.127 27.1488 162.037 27.402 163.123 27.402ZM182.146 30.3523C180.619 30.3523 179.28 29.989 178.127 29.2624C176.983 28.5359 176.087 27.5194 175.441 26.2131C174.803 24.9067 174.484 23.3802 174.484 21.6335C174.484 19.8722 174.803 18.3346 175.441 17.021C176.087 15.7073 176.983 14.6871 178.127 13.9606C179.28 13.234 180.619 12.8707 182.146 12.8707C183.672 12.8707 185.008 13.234 186.153 13.9606C187.305 14.6871 188.2 15.7073 188.839 17.021C189.485 18.3346 189.808 19.8722 189.808 21.6335C189.808 23.3802 189.485 24.9067 188.839 26.2131C188.2 27.5194 187.305 28.5359 186.153 29.2624C185.008 29.989 183.672 30.3523 182.146 30.3523ZM182.146 28.0185C183.305 28.0185 184.259 27.7212 185.008 27.1268C185.756 26.5323 186.31 25.7507 186.67 24.782C187.03 23.8132 187.21 22.7637 187.21 21.6335C187.21 20.5033 187.03 19.4502 186.67 18.4741C186.31 17.498 185.756 16.709 185.008 16.1072C184.259 15.5054 183.305 15.2045 182.146 15.2045C180.986 15.2045 180.032 15.5054 179.283 16.1072C178.535 16.709 177.981 17.498 177.621 18.4741C177.261 19.4502 177.082 20.5033 177.082 21.6335C177.082 22.7637 177.261 23.8132 177.621 24.782C177.981 25.7507 178.535 26.5323 179.283 27.1268C180.032 27.7212 180.986 28.0185 182.146 28.0185Z" fill="white"/>
</svg>
